<svg width="266" height="78" viewBox="0 0 266 78" fill="none" xmlns="http://www.w3.org/2000/svg">
<path d="M30.9212 27.7273V32.6989H15.2429V27.7273H30.9212ZM19.1136 21.1932H25.5412V46.7969C25.5412 47.661 25.6714 48.3239 25.9318 48.7855C26.2041 49.2353 26.5592 49.5431 26.9972 49.7088C27.4351 49.8745 27.9205 49.9574 28.4531 49.9574C28.8556 49.9574 29.2225 49.9278 29.554 49.8686C29.8973 49.8094 30.1577 49.7562 30.3352 49.7088L31.4183 54.7337C31.075 54.852 30.5838 54.9822 29.9446 55.1243C29.3172 55.2663 28.5478 55.3492 27.6364 55.3729C26.0265 55.4202 24.5765 55.1776 23.2862 54.6449C21.996 54.1004 20.9721 53.2599 20.2145 52.1236C19.4688 50.9872 19.1018 49.5668 19.1136 47.8622V21.1932ZM45.8102 39.0199V55H39.3826V18.6364H45.6681V32.3615H45.9877C46.627 30.8227 47.6154 29.6094 48.9529 28.7216C50.3024 27.822 52.0188 27.3722 54.1021 27.3722C55.996 27.3722 57.6473 27.7687 59.0559 28.5618C60.4645 29.3549 61.5536 30.5149 62.323 32.0419C63.1042 33.5689 63.4949 35.4332 63.4949 37.6349V55H57.0673V38.6293C57.0673 36.7945 56.5938 35.3681 55.6468 34.3501C54.7117 33.3203 53.3978 32.8054 51.7051 32.8054C50.5687 32.8054 49.5507 33.054 48.6511 33.5511C47.7633 34.0365 47.0649 34.7408 46.5559 35.6641C46.0588 36.5874 45.8102 37.706 45.8102 39.0199ZM84.6206 55.5327C81.8862 55.5327 79.5247 54.9645 77.536 53.8281C75.5592 52.6799 74.0382 51.0582 72.9728 48.9631C71.9075 46.8561 71.3748 44.3762 71.3748 41.5234C71.3748 38.718 71.9075 36.2559 72.9728 34.1371C74.05 32.0064 75.5533 30.3492 77.4828 29.1655C79.4122 27.9699 81.679 27.3722 84.2832 27.3722C85.9641 27.3722 87.5502 27.6444 89.0417 28.1889C90.545 28.7216 91.8708 29.5502 93.019 30.6747C94.179 31.7992 95.0905 33.2315 95.7534 34.9716C96.4163 36.6998 96.7477 38.7595 96.7477 41.1506V43.1214H74.3933V38.7891H90.5865C90.5746 37.558 90.3083 36.4631 89.7875 35.5043C89.2666 34.5336 88.5386 33.7701 87.6035 33.2138C86.6802 32.6574 85.603 32.3793 84.372 32.3793C83.0581 32.3793 81.9039 32.6989 80.9096 33.3381C79.9153 33.9654 79.14 34.794 78.5836 35.8239C78.0391 36.8419 77.7609 37.9605 77.7491 39.1797V42.9616C77.7491 44.5478 78.0391 45.9091 78.6191 47.0455C79.1992 48.17 80.01 49.0341 81.0517 49.6378C82.0933 50.2296 83.3126 50.5256 84.7093 50.5256C85.6445 50.5256 86.4908 50.3954 87.2484 50.1349C88.006 49.8627 88.6629 49.4661 89.2193 48.9453C89.7756 48.4245 90.1958 47.7794 90.4799 47.0099L96.4814 47.6847C96.1026 49.2708 95.3805 50.6558 94.3152 51.8395C93.2617 53.0114 91.9122 53.9228 90.2669 54.5739C88.6215 55.2131 86.7394 55.5327 84.6206 55.5327ZM141.143 34.9361L135.284 35.5753C135.118 34.9834 134.828 34.4271 134.414 33.9062C134.011 33.3854 133.467 32.9652 132.78 32.6456C132.094 32.326 131.253 32.1662 130.259 32.1662C128.921 32.1662 127.797 32.4562 126.885 33.0362C125.986 33.6162 125.542 34.3679 125.554 35.2912C125.542 36.0843 125.832 36.7294 126.424 37.2266C127.027 37.7237 128.022 38.1321 129.407 38.4517L134.059 39.446C136.639 40.0024 138.557 40.8842 139.811 42.0916C141.078 43.299 141.717 44.8793 141.729 46.8324C141.717 48.5488 141.214 50.0639 140.22 51.3778C139.237 52.6799 137.87 53.6979 136.118 54.4318C134.366 55.1657 132.354 55.5327 130.081 55.5327C126.743 55.5327 124.056 54.8343 122.02 53.4375C119.984 52.0289 118.771 50.0698 118.38 47.5604L124.648 46.9567C124.932 48.1877 125.536 49.117 126.459 49.7443C127.382 50.3717 128.584 50.6854 130.064 50.6854C131.591 50.6854 132.816 50.3717 133.739 49.7443C134.674 49.117 135.142 48.3416 135.142 47.4183C135.142 46.6371 134.84 45.992 134.236 45.483C133.644 44.974 132.721 44.5833 131.466 44.3111L126.814 43.3345C124.198 42.79 122.263 41.8726 121.008 40.5824C119.753 39.2803 119.132 37.6349 119.144 35.6463C119.132 33.9654 119.588 32.5095 120.511 31.2784C121.446 30.0355 122.742 29.0767 124.4 28.402C126.069 27.7154 127.992 27.3722 130.17 27.3722C133.366 27.3722 135.882 28.0528 137.716 29.4141C139.563 30.7753 140.705 32.616 141.143 34.9361ZM163.148 27.7273V32.6989H147.469V27.7273H163.148ZM151.34 21.1932H157.768V46.7969C157.768 47.661 157.898 48.3239 158.158 48.7855C158.431 49.2353 158.786 49.5431 159.224 49.7088C159.662 49.8745 160.147 49.9574 160.68 49.9574C161.082 49.9574 161.449 49.9278 161.781 49.8686C162.124 49.8094 162.384 49.7562 162.562 49.7088L163.645 54.7337C163.302 54.852 162.81 54.9822 162.171 55.1243C161.544 55.2663 160.774 55.3492 159.863 55.3729C158.253 55.4202 156.803 55.1776 155.513 54.6449C154.223 54.1004 153.199 53.2599 152.441 52.1236C151.695 50.9872 151.328 49.5668 151.34 47.8622V21.1932ZM182.627 55.5327C179.963 55.5327 177.655 54.9467 175.702 53.7749C173.749 52.603 172.234 50.9635 171.156 48.8565C170.091 46.7495 169.558 44.2874 169.558 41.4702C169.558 38.6529 170.091 36.1849 171.156 34.0661C172.234 31.9472 173.749 30.3018 175.702 29.13C177.655 27.9581 179.963 27.3722 182.627 27.3722C185.29 27.3722 187.598 27.9581 189.551 29.13C191.504 30.3018 193.014 31.9472 194.079 34.0661C195.156 36.1849 195.695 38.6529 195.695 41.4702C195.695 44.2874 195.156 46.7495 194.079 48.8565C193.014 50.9635 191.504 52.603 189.551 53.7749C187.598 54.9467 185.29 55.5327 182.627 55.5327ZM182.662 50.3835C184.106 50.3835 185.314 49.987 186.284 49.1939C187.255 48.389 187.977 47.3118 188.45 45.9624C188.936 44.6129 189.178 43.1096 189.178 41.4524C189.178 39.7834 188.936 38.2741 188.45 36.9247C187.977 35.5634 187.255 34.4804 186.284 33.6754C185.314 32.8705 184.106 32.468 182.662 32.468C181.182 32.468 179.951 32.8705 178.969 33.6754C177.998 34.4804 177.27 35.5634 176.785 36.9247C176.311 38.2741 176.075 39.7834 176.075 41.4524C176.075 43.1096 176.311 44.6129 176.785 45.9624C177.27 47.3118 177.998 48.389 178.969 49.1939C179.951 49.987 181.182 50.3835 182.662 50.3835ZM203.65 55V27.7273H209.882V32.2727H210.167C210.664 30.6984 211.516 29.4851 212.723 28.6328C213.943 27.7687 215.333 27.3366 216.896 27.3366C217.251 27.3366 217.648 27.3544 218.086 27.3899C218.535 27.4136 218.908 27.455 219.204 27.5142V33.4268C218.932 33.3321 218.5 33.2493 217.908 33.1783C217.328 33.0954 216.766 33.054 216.221 33.054C215.049 33.054 213.996 33.3085 213.061 33.8175C212.137 34.3146 211.409 35.0071 210.877 35.8949C210.344 36.7827 210.078 37.8066 210.078 38.9666V55H203.65ZM236.925 55.5327C234.191 55.5327 231.829 54.9645 229.841 53.8281C227.864 52.6799 226.343 51.0582 225.278 48.9631C224.212 46.8561 223.68 44.3762 223.68 41.5234C223.68 38.718 224.212 36.2559 225.278 34.1371C226.355 32.0064 227.858 30.3492 229.787 29.1655C231.717 27.9699 233.984 27.3722 236.588 27.3722C238.269 27.3722 239.855 27.6444 241.346 28.1889C242.85 28.7216 244.175 29.5502 245.324 30.6747C246.484 31.7992 247.395 33.2315 248.058 34.9716C248.721 36.6998 249.052 38.7595 249.052 41.1506V43.1214H226.698V38.7891H242.891C242.879 37.558 242.613 36.4631 242.092 35.5043C241.571 34.5336 240.843 33.7701 239.908 33.2138C238.985 32.6574 237.908 32.3793 236.677 32.3793C235.363 32.3793 234.209 32.6989 233.214 33.3381C232.22 33.9654 231.445 34.794 230.888 35.8239C230.344 36.8419 230.066 37.9605 230.054 39.1797V42.9616C230.054 44.5478 230.344 45.9091 230.924 47.0455C231.504 48.17 232.315 49.0341 233.356 49.6378C234.398 50.2296 235.617 50.5256 237.014 50.5256C237.949 50.5256 238.796 50.3954 239.553 50.1349C240.311 49.8627 240.968 49.4661 241.524 48.9453C242.08 48.4245 242.501 47.7794 242.785 47.0099L248.786 47.6847C248.407 49.2708 247.685 50.6558 246.62 51.8395C245.566 53.0114 244.217 53.9228 242.572 54.5739C240.926 55.2131 239.044 55.5327 236.925 55.5327Z" fill="#242424"/>
</svg>
