<svg width="254" height="48" fill="none" xmlns="http://www.w3.org/2000/svg">
  <path d="M7.9311 37 .2251 9.7273H6.777l4.794 19.1761h.2486l4.9006-19.1761h6.4808l4.9006 19.0696h.2663l4.723-19.0696h6.5696L31.9368 37h-6.6939l-5.1136-18.4304h-.3729L14.6428 37H7.9311ZM57.7633 37.5327c-2.6633 0-4.9716-.586-6.9247-1.7578-1.9531-1.1719-3.4683-2.8114-4.5455-4.9184-1.0653-2.107-1.598-4.5691-1.598-7.3863 0-2.8173.5327-5.2853 1.598-7.4041 1.0772-2.1189 2.5924-3.7642 4.5455-4.9361 1.9531-1.1719 4.2614-1.7578 6.9247-1.7578 2.6634 0 4.9716.5859 6.9247 1.7578 1.9532 1.1719 3.4624 2.8172 4.5277 4.9361 1.0772 2.1188 1.6158 4.5868 1.6158 7.4041 0 2.8172-.5386 5.2793-1.6158 7.3863-1.0653 2.107-2.5745 3.7465-4.5277 4.9184-1.9531 1.1718-4.2613 1.7578-6.9247 1.7578Zm.0355-5.1492c1.4442 0 2.6515-.3965 3.6222-1.1896.9706-.8049 1.6927-1.8821 2.1662-3.2315.4853-1.3495.728-2.8528.728-4.51 0-1.669-.2427-3.1782-.728-4.5277-.4735-1.3612-1.1956-2.4443-2.1662-3.2493-.9707-.8049-2.178-1.2074-3.6222-1.2074-1.4796 0-2.7107.4025-3.6932 1.2074-.9706.805-1.6986 1.8881-2.1839 3.2493-.4735 1.3495-.7102 2.8587-.7102 4.5277 0 1.6572.2367 3.1605.7102 4.51.4853 1.3494 1.2133 2.4266 2.1839 3.2315.9825.7931 2.2136 1.1896 3.6932 1.1896ZM78.7869 37V9.7273h6.2323v4.5454h.2841c.4971-1.5743 1.3494-2.7876 2.5568-3.6399 1.2192-.864 2.6101-1.2961 4.1726-1.2961.3551 0 .7516.0177 1.1896.0532.4498.0237.8227.0651 1.1186.1243v5.9127c-.2722-.0947-.7043-.1776-1.2962-.2486-.58-.0829-1.1422-.1243-1.6867-.1243-1.1719 0-2.2254.2545-3.1606.7635-.9233.4971-1.6512 1.1896-2.1839 2.0774-.5327.8878-.799 1.9117-.799 3.0717V37h-6.4276ZM106.971 28.4418l-.018-7.7593h1.03l9.801-10.9552h7.51l-12.056 13.4233h-1.331l-4.936 5.2912ZM101.111 37V.6364h6.428V37h-6.428Zm17.117 0-8.878-12.4112 4.332-4.5277L125.916 37h-7.688ZM153.633 16.9361l-5.859.6392c-.166-.5919-.456-1.1482-.87-1.669-.403-.5209-.947-.9411-1.634-1.2607-.686-.3196-1.527-.4794-2.521-.4794-1.337 0-2.462.29-3.373.87-.9.58-1.344 1.3317-1.332 2.255-.012.7931.278 1.4382.87 1.9354.604.4971 1.598.9055 2.983 1.2251l4.652.9943c2.58.5564 4.498 1.4382 5.753 2.6456 1.266 1.2074 1.905 2.7877 1.917 4.7408-.012 1.7164-.515 3.2315-1.509 4.5454-.982 1.3021-2.35 2.3201-4.102 3.054-1.751.7339-3.764 1.1009-6.036 1.1009-3.339 0-6.026-.6984-8.062-2.0952-2.036-1.4086-3.249-3.3677-3.639-5.8771l6.267-.6037c.284 1.231.888 2.1603 1.811 2.7876.924.6274 2.125.9411 3.605.9411 1.527 0 2.752-.3137 3.675-.9411.935-.6273 1.403-1.4027 1.403-2.326 0-.7812-.302-1.4263-.906-1.9353-.591-.509-1.515-.8997-2.77-1.1719l-4.651-.9766c-2.616-.5445-4.552-1.4619-5.807-2.7521-1.254-1.3021-1.876-2.9475-1.864-4.9361-.012-1.6809.444-3.1368 1.367-4.3679.935-1.2429 2.232-2.2017 3.889-2.8764 1.669-.6866 3.592-1.0298 5.77-1.0298 3.196 0 5.712.6806 7.546 2.0419 1.847 1.3612 2.989 3.2019 3.427 5.522ZM168.447 21.0199V37h-6.428V.6364h6.286v13.7251h.319c.64-1.5388 1.628-2.7521 2.966-3.6399 1.349-.8996 3.065-1.3494 5.149-1.3494 1.894 0 3.545.3965 4.954 1.1896 1.408.7931 2.497 1.9531 3.267 3.4801.781 1.527 1.172 3.3913 1.172 5.593V37h-6.428V20.6293c0-1.8348-.473-3.2612-1.42-4.2792-.936-1.0298-2.249-1.5447-3.942-1.5447-1.137 0-2.155.2486-3.054.7457-.888.4854-1.586 1.1897-2.095 2.113-.498.9233-.746 2.0419-.746 3.3558ZM207.08 37.5327c-2.664 0-4.972-.586-6.925-1.7578-1.953-1.1719-3.468-2.8114-4.545-4.9184-1.066-2.107-1.598-4.5691-1.598-7.3863 0-2.8173.532-5.2853 1.598-7.4041 1.077-2.1189 2.592-3.7642 4.545-4.9361 1.953-1.1719 4.261-1.7578 6.925-1.7578 2.663 0 4.971.5859 6.924 1.7578 1.954 1.1719 3.463 2.8172 4.528 4.9361 1.077 2.1188 1.616 4.5868 1.616 7.4041 0 2.8172-.539 5.2793-1.616 7.3863-1.065 2.107-2.574 3.7465-4.528 4.9184-1.953 1.1718-4.261 1.7578-6.924 1.7578Zm.035-5.1492c1.444 0 2.652-.3965 3.622-1.1896.971-.8049 1.693-1.8821 2.167-3.2315.485-1.3495.728-2.8528.728-4.51 0-1.669-.243-3.1782-.728-4.5277-.474-1.3612-1.196-2.4443-2.167-3.2493-.97-.8049-2.178-1.2074-3.622-1.2074-1.479 0-2.71.4025-3.693 1.2074-.971.805-1.699 1.8881-2.184 3.2493-.473 1.3495-.71 2.8587-.71 4.5277 0 1.6572.237 3.1605.71 4.51.485 1.3494 1.213 2.4266 2.184 3.2315.983.7931 2.214 1.1896 3.693 1.1896ZM228.103 47.2273v-37.5h6.321v4.5099h.373c.332-.6629.799-1.3672 1.403-2.1129.604-.7576 1.42-1.4027 2.45-1.9354 1.03-.5445 2.344-.8167 3.942-.8167 2.107 0 4.007.5386 5.7 1.6157 1.704 1.0654 3.054 2.6456 4.048 4.7408 1.006 2.0833 1.509 4.6401 1.509 7.6705 0 2.9947-.491 5.5397-1.474 7.6349-.982 2.0952-2.32 3.6932-4.012 4.794-1.693 1.1009-3.611 1.6513-5.753 1.6513-1.563 0-2.859-.2604-3.889-.7812-1.03-.5209-1.858-1.1482-2.486-1.8821-.615-.7458-1.094-1.4501-1.438-2.113h-.266v14.5242h-6.428Zm6.304-23.8637c0 1.7638.248 3.3085.745 4.6343.509 1.3257 1.237 2.3615 2.184 3.1072.959.7339 2.119 1.1009 3.48 1.1009 1.421 0 2.61-.3788 3.569-1.1364.959-.7694 1.681-1.817 2.166-3.1427.498-1.3376.746-2.8587.746-4.5633 0-1.6927-.242-3.196-.728-4.5099-.485-1.3139-1.207-2.3438-2.166-3.0895-.959-.7457-2.154-1.1186-3.587-1.1186-1.373 0-2.539.361-3.497 1.0831-.959.7221-1.687 1.7341-2.184 3.0362-.486 1.3021-.728 2.835-.728 4.5987Z" fill="#33312e"/>
</svg>